<?xml version="1.0" encoding="utf-8" standalone="no"?>
<!DOCTYPE svg PUBLIC "-//W3C//DTD SVG 1.1//EN"
  "http://www.w3.org/Graphics/SVG/1.1/DTD/svg11.dtd">
<svg xmlns:xlink="http://www.w3.org/1999/xlink" width="977.555182pt" height="345.878967pt" viewBox="0 0 977.555182 345.878967" xmlns="http://www.w3.org/2000/svg" version="1.1">
 <metadata>
  <rdf:RDF xmlns:dc="http://purl.org/dc/elements/1.1/" xmlns:cc="http://creativecommons.org/ns#" xmlns:rdf="http://www.w3.org/1999/02/22-rdf-syntax-ns#">
   <cc:Work>
    <dc:type rdf:resource="http://purl.org/dc/dcmitype/StillImage"/>
    <dc:date>2026-03-27T22:21:16.121172</dc:date>
    <dc:format>image/svg+xml</dc:format>
    <dc:creator>
     <cc:Agent>
      <dc:title>Matplotlib v3.10.0, https://matplotlib.org/</dc:title>
     </cc:Agent>
    </dc:creator>
   </cc:Work>
  </rdf:RDF>
 </metadata>
 <defs>
  <style type="text/css">*{stroke-linejoin: round; stroke-linecap: butt}</style>
 </defs>
 <g id="figure_1">
  <g id="patch_1">
   <path d="M 0 345.878967 
L 977.555182 345.878967 
L 977.555182 0 
L 0 0 
z
" style="fill: #ffffff"/>
  </g>
  <g id="axes_1">
   <g id="patch_2">
    <path d="M 59.416513 269.28 
L 330.398331 269.28 
L 330.398331 139.68 
L 59.416513 139.68 
z
" style="fill: #ffffff"/>
   </g>
   <g id="matplotlib.axis_1">
    <g id="xtick_1">
     <g id="line2d_1">
      <path d="M 71.733868 269.28 
L 71.733868 139.68 
" clip-path="url(#p4ee61d36f4)" style="fill: none; stroke-dasharray: 5.55,2.4; stroke-dashoffset: 0; stroke: #cccccc; stroke-opacity: 0.35; stroke-width: 1.5"/>
     </g>
     <g id="text_1">
      <!-- 100 -->
      <g style="fill: #262626" transform="translate(60.029979 302.703059) rotate(-20) scale(0.1683 -0.1683)">
       <defs>
        <path id="ArialMT-31" d="M 2384 0 
L 1822 0 
L 1822 3584 
Q 1619 3391 1289 3197 
Q 959 3003 697 2906 
L 697 3450 
Q 1169 3672 1522 3987 
Q 1875 4303 2022 4600 
L 2384 4600 
L 2384 0 
z
" transform="scale(0.015625)"/>
        <path id="ArialMT-30" d="M 266 2259 
Q 266 3072 433 3567 
Q 600 4063 929 4331 
Q 1259 4600 1759 4600 
Q 2128 4600 2406 4451 
Q 2684 4303 2865 4023 
Q 3047 3744 3150 3342 
Q 3253 2941 3253 2259 
Q 3253 1453 3087 958 
Q 2922 463 2592 192 
Q 2263 -78 1759 -78 
Q 1097 -78 719 397 
Q 266 969 266 2259 
z
M 844 2259 
Q 844 1131 1108 757 
Q 1372 384 1759 384 
Q 2147 384 2411 759 
Q 2675 1134 2675 2259 
Q 2675 3391 2411 3762 
Q 2147 4134 1753 4134 
Q 1366 4134 1134 3806 
Q 844 3388 844 2259 
z
" transform="scale(0.015625)"/>
       </defs>
       <use xlink:href="#ArialMT-31"/>
       <use xlink:href="#ArialMT-30" transform="translate(55.615234 0)"/>
       <use xlink:href="#ArialMT-30" transform="translate(111.230469 0)"/>
      </g>
     </g>
    </g>
    <g id="xtick_2">
     <g id="line2d_2">
      <path d="M 153.84957 269.28 
L 153.84957 139.68 
" clip-path="url(#p4ee61d36f4)" style="fill: none; stroke-dasharray: 5.55,2.4; stroke-dashoffset: 0; stroke: #cccccc; stroke-opacity: 0.35; stroke-width: 1.5"/>
     </g>
     <g id="text_2">
      <!-- 1000 -->
      <g style="fill: #262626" transform="translate(137.748363 305.904045) rotate(-20) scale(0.1683 -0.1683)">
       <use xlink:href="#ArialMT-31"/>
       <use xlink:href="#ArialMT-30" transform="translate(55.615234 0)"/>
       <use xlink:href="#ArialMT-30" transform="translate(111.230469 0)"/>
       <use xlink:href="#ArialMT-30" transform="translate(166.845703 0)"/>
      </g>
     </g>
    </g>
    <g id="xtick_3">
     <g id="line2d_3">
      <path d="M 235.965273 269.28 
L 235.965273 139.68 
" clip-path="url(#p4ee61d36f4)" style="fill: none; stroke-dasharray: 5.55,2.4; stroke-dashoffset: 0; stroke: #cccccc; stroke-opacity: 0.35; stroke-width: 1.5"/>
     </g>
     <g id="text_3">
      <!-- 10000 -->
      <g style="fill: #262626" transform="translate(215.466746 309.105031) rotate(-20) scale(0.1683 -0.1683)">
       <use xlink:href="#ArialMT-31"/>
       <use xlink:href="#ArialMT-30" transform="translate(55.615234 0)"/>
       <use xlink:href="#ArialMT-30" transform="translate(111.230469 0)"/>
       <use xlink:href="#ArialMT-30" transform="translate(166.845703 0)"/>
       <use xlink:href="#ArialMT-30" transform="translate(222.460938 0)"/>
      </g>
     </g>
    </g>
    <g id="xtick_4">
     <g id="line2d_4">
      <path d="M 318.080975 269.28 
L 318.080975 139.68 
" clip-path="url(#p4ee61d36f4)" style="fill: none; stroke-dasharray: 5.55,2.4; stroke-dashoffset: 0; stroke: #cccccc; stroke-opacity: 0.35; stroke-width: 1.5"/>
     </g>
     <g id="text_4">
      <!-- 100000 -->
      <g style="fill: #262626" transform="translate(293.18513 312.306017) rotate(-20) scale(0.1683 -0.1683)">
       <use xlink:href="#ArialMT-31"/>
       <use xlink:href="#ArialMT-30" transform="translate(55.615234 0)"/>
       <use xlink:href="#ArialMT-30" transform="translate(111.230469 0)"/>
       <use xlink:href="#ArialMT-30" transform="translate(166.845703 0)"/>
       <use xlink:href="#ArialMT-30" transform="translate(222.460938 0)"/>
       <use xlink:href="#ArialMT-30" transform="translate(278.076172 0)"/>
      </g>
     </g>
    </g>
    <g id="xtick_5"/>
    <g id="xtick_6"/>
    <g id="xtick_7"/>
    <g id="xtick_8"/>
    <g id="xtick_9"/>
    <g id="xtick_10"/>
    <g id="xtick_11"/>
    <g id="xtick_12"/>
    <g id="xtick_13"/>
    <g id="xtick_14"/>
    <g id="xtick_15"/>
    <g id="xtick_16"/>
    <g id="xtick_17"/>
    <g id="xtick_18"/>
    <g id="xtick_19"/>
    <g id="xtick_20"/>
    <g id="xtick_21"/>
    <g id="xtick_22"/>
    <g id="xtick_23"/>
    <g id="xtick_24"/>
    <g id="xtick_25"/>
    <g id="xtick_26"/>
    <g id="xtick_27"/>
    <g id="xtick_28"/>
    <g id="xtick_29"/>
    <g id="xtick_30"/>
    <g id="text_5">
     <!-- Input size (n) -->
     <g style="fill: #262626" transform="translate(141.848456 334.81476) scale(0.1836 -0.1836)">
      <defs>
       <path id="ArialMT-49" d="M 597 0 
L 597 4581 
L 1203 4581 
L 1203 0 
L 597 0 
z
" transform="scale(0.015625)"/>
       <path id="ArialMT-6e" d="M 422 0 
L 422 3319 
L 928 3319 
L 928 2847 
Q 1294 3394 1984 3394 
Q 2284 3394 2536 3286 
Q 2788 3178 2913 3003 
Q 3038 2828 3088 2588 
Q 3119 2431 3119 2041 
L 3119 0 
L 2556 0 
L 2556 2019 
Q 2556 2363 2490 2533 
Q 2425 2703 2258 2804 
Q 2091 2906 1866 2906 
Q 1506 2906 1245 2678 
Q 984 2450 984 1813 
L 984 0 
L 422 0 
z
" transform="scale(0.015625)"/>
       <path id="ArialMT-70" d="M 422 -1272 
L 422 3319 
L 934 3319 
L 934 2888 
Q 1116 3141 1344 3267 
Q 1572 3394 1897 3394 
Q 2322 3394 2647 3175 
Q 2972 2956 3137 2557 
Q 3303 2159 3303 1684 
Q 3303 1175 3120 767 
Q 2938 359 2589 142 
Q 2241 -75 1856 -75 
Q 1575 -75 1351 44 
Q 1128 163 984 344 
L 984 -1272 
L 422 -1272 
z
M 931 1641 
Q 931 1000 1190 694 
Q 1450 388 1819 388 
Q 2194 388 2461 705 
Q 2728 1022 2728 1688 
Q 2728 2322 2467 2637 
Q 2206 2953 1844 2953 
Q 1484 2953 1207 2617 
Q 931 2281 931 1641 
z
" transform="scale(0.015625)"/>
       <path id="ArialMT-75" d="M 2597 0 
L 2597 488 
Q 2209 -75 1544 -75 
Q 1250 -75 995 37 
Q 741 150 617 320 
Q 494 491 444 738 
Q 409 903 409 1263 
L 409 3319 
L 972 3319 
L 972 1478 
Q 972 1038 1006 884 
Q 1059 663 1231 536 
Q 1403 409 1656 409 
Q 1909 409 2131 539 
Q 2353 669 2445 892 
Q 2538 1116 2538 1541 
L 2538 3319 
L 3100 3319 
L 3100 0 
L 2597 0 
z
" transform="scale(0.015625)"/>
       <path id="ArialMT-74" d="M 1650 503 
L 1731 6 
Q 1494 -44 1306 -44 
Q 1000 -44 831 53 
Q 663 150 594 308 
Q 525 466 525 972 
L 525 2881 
L 113 2881 
L 113 3319 
L 525 3319 
L 525 4141 
L 1084 4478 
L 1084 3319 
L 1650 3319 
L 1650 2881 
L 1084 2881 
L 1084 941 
Q 1084 700 1114 631 
Q 1144 563 1211 522 
Q 1278 481 1403 481 
Q 1497 481 1650 503 
z
" transform="scale(0.015625)"/>
       <path id="ArialMT-20" transform="scale(0.015625)"/>
       <path id="ArialMT-73" d="M 197 991 
L 753 1078 
Q 800 744 1014 566 
Q 1228 388 1613 388 
Q 2000 388 2187 545 
Q 2375 703 2375 916 
Q 2375 1106 2209 1216 
Q 2094 1291 1634 1406 
Q 1016 1563 777 1677 
Q 538 1791 414 1992 
Q 291 2194 291 2438 
Q 291 2659 392 2848 
Q 494 3038 669 3163 
Q 800 3259 1026 3326 
Q 1253 3394 1513 3394 
Q 1903 3394 2198 3281 
Q 2494 3169 2634 2976 
Q 2775 2784 2828 2463 
L 2278 2388 
Q 2241 2644 2061 2787 
Q 1881 2931 1553 2931 
Q 1166 2931 1000 2803 
Q 834 2675 834 2503 
Q 834 2394 903 2306 
Q 972 2216 1119 2156 
Q 1203 2125 1616 2013 
Q 2213 1853 2448 1751 
Q 2684 1650 2818 1456 
Q 2953 1263 2953 975 
Q 2953 694 2789 445 
Q 2625 197 2315 61 
Q 2006 -75 1616 -75 
Q 969 -75 630 194 
Q 291 463 197 991 
z
" transform="scale(0.015625)"/>
       <path id="ArialMT-69" d="M 425 3934 
L 425 4581 
L 988 4581 
L 988 3934 
L 425 3934 
z
M 425 0 
L 425 3319 
L 988 3319 
L 988 0 
L 425 0 
z
" transform="scale(0.015625)"/>
       <path id="ArialMT-7a" d="M 125 0 
L 125 456 
L 2238 2881 
Q 1878 2863 1603 2863 
L 250 2863 
L 250 3319 
L 2963 3319 
L 2963 2947 
L 1166 841 
L 819 456 
Q 1197 484 1528 484 
L 3063 484 
L 3063 0 
L 125 0 
z
" transform="scale(0.015625)"/>
       <path id="ArialMT-65" d="M 2694 1069 
L 3275 997 
Q 3138 488 2766 206 
Q 2394 -75 1816 -75 
Q 1088 -75 661 373 
Q 234 822 234 1631 
Q 234 2469 665 2931 
Q 1097 3394 1784 3394 
Q 2450 3394 2872 2941 
Q 3294 2488 3294 1666 
Q 3294 1616 3291 1516 
L 816 1516 
Q 847 969 1125 678 
Q 1403 388 1819 388 
Q 2128 388 2347 550 
Q 2566 713 2694 1069 
z
M 847 1978 
L 2700 1978 
Q 2663 2397 2488 2606 
Q 2219 2931 1791 2931 
Q 1403 2931 1139 2672 
Q 875 2413 847 1978 
z
" transform="scale(0.015625)"/>
       <path id="ArialMT-28" d="M 1497 -1347 
Q 1031 -759 709 28 
Q 388 816 388 1659 
Q 388 2403 628 3084 
Q 909 3875 1497 4659 
L 1900 4659 
Q 1522 4009 1400 3731 
Q 1209 3300 1100 2831 
Q 966 2247 966 1656 
Q 966 153 1900 -1347 
L 1497 -1347 
z
" transform="scale(0.015625)"/>
       <path id="ArialMT-29" d="M 791 -1347 
L 388 -1347 
Q 1322 153 1322 1656 
Q 1322 2244 1188 2822 
Q 1081 3291 891 3722 
Q 769 4003 388 4659 
L 791 4659 
Q 1378 3875 1659 3084 
Q 1900 2403 1900 1659 
Q 1900 816 1576 28 
Q 1253 -759 791 -1347 
z
" transform="scale(0.015625)"/>
      </defs>
      <use xlink:href="#ArialMT-49"/>
      <use xlink:href="#ArialMT-6e" transform="translate(27.783203 0)"/>
      <use xlink:href="#ArialMT-70" transform="translate(83.398438 0)"/>
      <use xlink:href="#ArialMT-75" transform="translate(139.013672 0)"/>
      <use xlink:href="#ArialMT-74" transform="translate(194.628906 0)"/>
      <use xlink:href="#ArialMT-20" transform="translate(222.412109 0)"/>
      <use xlink:href="#ArialMT-73" transform="translate(250.195312 0)"/>
      <use xlink:href="#ArialMT-69" transform="translate(300.195312 0)"/>
      <use xlink:href="#ArialMT-7a" transform="translate(322.412109 0)"/>
      <use xlink:href="#ArialMT-65" transform="translate(372.412109 0)"/>
      <use xlink:href="#ArialMT-20" transform="translate(428.027344 0)"/>
      <use xlink:href="#ArialMT-28" transform="translate(455.810547 0)"/>
      <use xlink:href="#ArialMT-6e" transform="translate(489.111328 0)"/>
      <use xlink:href="#ArialMT-29" transform="translate(544.726562 0)"/>
     </g>
    </g>
   </g>
   <g id="matplotlib.axis_2">
    <g id="ytick_1">
     <g id="line2d_5">
      <path d="M 59.416513 263.389092 
L 330.398331 263.389092 
" clip-path="url(#p4ee61d36f4)" style="fill: none; stroke-dasharray: 5.55,2.4; stroke-dashoffset: 0; stroke: #cccccc; stroke-opacity: 0.35; stroke-width: 1.5"/>
     </g>
     <g id="text_6">
      <!-- 0.0 -->
      <g style="fill: #262626" transform="translate(23.522813 269.412391) scale(0.1683 -0.1683)">
       <defs>
        <path id="ArialMT-2e" d="M 581 0 
L 581 641 
L 1222 641 
L 1222 0 
L 581 0 
z
" transform="scale(0.015625)"/>
       </defs>
       <use xlink:href="#ArialMT-30"/>
       <use xlink:href="#ArialMT-2e" transform="translate(55.615234 0)"/>
       <use xlink:href="#ArialMT-30" transform="translate(83.398438 0)"/>
      </g>
     </g>
    </g>
    <g id="ytick_2">
     <g id="line2d_6">
      <path d="M 59.416513 204.48 
L 330.398331 204.48 
" clip-path="url(#p4ee61d36f4)" style="fill: none; stroke-dasharray: 5.55,2.4; stroke-dashoffset: 0; stroke: #cccccc; stroke-opacity: 0.35; stroke-width: 1.5"/>
     </g>
     <g id="text_7">
      <!-- 0.5 -->
      <g style="fill: #262626" transform="translate(23.522813 210.5033) scale(0.1683 -0.1683)">
       <defs>
        <path id="ArialMT-35" d="M 266 1200 
L 856 1250 
Q 922 819 1161 601 
Q 1400 384 1738 384 
Q 2144 384 2425 690 
Q 2706 997 2706 1503 
Q 2706 1984 2436 2262 
Q 2166 2541 1728 2541 
Q 1456 2541 1237 2417 
Q 1019 2294 894 2097 
L 366 2166 
L 809 4519 
L 3088 4519 
L 3088 3981 
L 1259 3981 
L 1013 2750 
Q 1425 3038 1878 3038 
Q 2478 3038 2890 2622 
Q 3303 2206 3303 1553 
Q 3303 931 2941 478 
Q 2500 -78 1738 -78 
Q 1113 -78 717 272 
Q 322 622 266 1200 
z
" transform="scale(0.015625)"/>
       </defs>
       <use xlink:href="#ArialMT-30"/>
       <use xlink:href="#ArialMT-2e" transform="translate(55.615234 0)"/>
       <use xlink:href="#ArialMT-35" transform="translate(83.398438 0)"/>
      </g>
     </g>
    </g>
    <g id="ytick_3">
     <g id="line2d_7">
      <path d="M 59.416513 145.570909 
L 330.398331 145.570909 
" clip-path="url(#p4ee61d36f4)" style="fill: none; stroke-dasharray: 5.55,2.4; stroke-dashoffset: 0; stroke: #cccccc; stroke-opacity: 0.35; stroke-width: 1.5"/>
     </g>
     <g id="text_8">
      <!-- 1.0 -->
      <g style="fill: #262626" transform="translate(23.522813 151.594208) scale(0.1683 -0.1683)">
       <use xlink:href="#ArialMT-31"/>
       <use xlink:href="#ArialMT-2e" transform="translate(55.615234 0)"/>
       <use xlink:href="#ArialMT-30" transform="translate(83.398438 0)"/>
      </g>
     </g>
    </g>
    <g id="text_9">
     <!-- Empirical time / g(n) -->
     <g style="fill: #262626" transform="translate(15.207656 253.375859) rotate(-90) scale(0.11 -0.11)">
      <defs>
       <path id="ArialMT-45" d="M 506 0 
L 506 4581 
L 3819 4581 
L 3819 4041 
L 1113 4041 
L 1113 2638 
L 3647 2638 
L 3647 2100 
L 1113 2100 
L 1113 541 
L 3925 541 
L 3925 0 
L 506 0 
z
" transform="scale(0.015625)"/>
       <path id="ArialMT-6d" d="M 422 0 
L 422 3319 
L 925 3319 
L 925 2853 
Q 1081 3097 1340 3245 
Q 1600 3394 1931 3394 
Q 2300 3394 2536 3241 
Q 2772 3088 2869 2813 
Q 3263 3394 3894 3394 
Q 4388 3394 4653 3120 
Q 4919 2847 4919 2278 
L 4919 0 
L 4359 0 
L 4359 2091 
Q 4359 2428 4304 2576 
Q 4250 2725 4106 2815 
Q 3963 2906 3769 2906 
Q 3419 2906 3187 2673 
Q 2956 2441 2956 1928 
L 2956 0 
L 2394 0 
L 2394 2156 
Q 2394 2531 2256 2718 
Q 2119 2906 1806 2906 
Q 1569 2906 1367 2781 
Q 1166 2656 1075 2415 
Q 984 2175 984 1722 
L 984 0 
L 422 0 
z
" transform="scale(0.015625)"/>
       <path id="ArialMT-72" d="M 416 0 
L 416 3319 
L 922 3319 
L 922 2816 
Q 1116 3169 1280 3281 
Q 1444 3394 1641 3394 
Q 1925 3394 2219 3213 
L 2025 2691 
Q 1819 2813 1613 2813 
Q 1428 2813 1281 2702 
Q 1134 2591 1072 2394 
Q 978 2094 978 1738 
L 978 0 
L 416 0 
z
" transform="scale(0.015625)"/>
       <path id="ArialMT-63" d="M 2588 1216 
L 3141 1144 
Q 3050 572 2676 248 
Q 2303 -75 1759 -75 
Q 1078 -75 664 370 
Q 250 816 250 1647 
Q 250 2184 428 2587 
Q 606 2991 970 3192 
Q 1334 3394 1763 3394 
Q 2303 3394 2647 3120 
Q 2991 2847 3088 2344 
L 2541 2259 
Q 2463 2594 2264 2762 
Q 2066 2931 1784 2931 
Q 1359 2931 1093 2626 
Q 828 2322 828 1663 
Q 828 994 1084 691 
Q 1341 388 1753 388 
Q 2084 388 2306 591 
Q 2528 794 2588 1216 
z
" transform="scale(0.015625)"/>
       <path id="ArialMT-61" d="M 2588 409 
Q 2275 144 1986 34 
Q 1697 -75 1366 -75 
Q 819 -75 525 192 
Q 231 459 231 875 
Q 231 1119 342 1320 
Q 453 1522 633 1644 
Q 813 1766 1038 1828 
Q 1203 1872 1538 1913 
Q 2219 1994 2541 2106 
Q 2544 2222 2544 2253 
Q 2544 2597 2384 2738 
Q 2169 2928 1744 2928 
Q 1347 2928 1158 2789 
Q 969 2650 878 2297 
L 328 2372 
Q 403 2725 575 2942 
Q 747 3159 1072 3276 
Q 1397 3394 1825 3394 
Q 2250 3394 2515 3294 
Q 2781 3194 2906 3042 
Q 3031 2891 3081 2659 
Q 3109 2516 3109 2141 
L 3109 1391 
Q 3109 606 3145 398 
Q 3181 191 3288 0 
L 2700 0 
Q 2613 175 2588 409 
z
M 2541 1666 
Q 2234 1541 1622 1453 
Q 1275 1403 1131 1340 
Q 988 1278 909 1158 
Q 831 1038 831 891 
Q 831 666 1001 516 
Q 1172 366 1500 366 
Q 1825 366 2078 508 
Q 2331 650 2450 897 
Q 2541 1088 2541 1459 
L 2541 1666 
z
" transform="scale(0.015625)"/>
       <path id="ArialMT-6c" d="M 409 0 
L 409 4581 
L 972 4581 
L 972 0 
L 409 0 
z
" transform="scale(0.015625)"/>
       <path id="ArialMT-2f" d="M 0 -78 
L 1328 4659 
L 1778 4659 
L 453 -78 
L 0 -78 
z
" transform="scale(0.015625)"/>
       <path id="ArialMT-67" d="M 319 -275 
L 866 -356 
Q 900 -609 1056 -725 
Q 1266 -881 1628 -881 
Q 2019 -881 2231 -725 
Q 2444 -569 2519 -288 
Q 2563 -116 2559 434 
Q 2191 0 1641 0 
Q 956 0 581 494 
Q 206 988 206 1678 
Q 206 2153 378 2554 
Q 550 2956 876 3175 
Q 1203 3394 1644 3394 
Q 2231 3394 2613 2919 
L 2613 3319 
L 3131 3319 
L 3131 450 
Q 3131 -325 2973 -648 
Q 2816 -972 2473 -1159 
Q 2131 -1347 1631 -1347 
Q 1038 -1347 672 -1080 
Q 306 -813 319 -275 
z
M 784 1719 
Q 784 1066 1043 766 
Q 1303 466 1694 466 
Q 2081 466 2343 764 
Q 2606 1063 2606 1700 
Q 2606 2309 2336 2618 
Q 2066 2928 1684 2928 
Q 1309 2928 1046 2623 
Q 784 2319 784 1719 
z
" transform="scale(0.015625)"/>
      </defs>
      <use xlink:href="#ArialMT-45"/>
      <use xlink:href="#ArialMT-6d" transform="translate(66.699219 0)"/>
      <use xlink:href="#ArialMT-70" transform="translate(150 0)"/>
      <use xlink:href="#ArialMT-69" transform="translate(205.615234 0)"/>
      <use xlink:href="#ArialMT-72" transform="translate(227.832031 0)"/>
      <use xlink:href="#ArialMT-69" transform="translate(261.132812 0)"/>
      <use xlink:href="#ArialMT-63" transform="translate(283.349609 0)"/>
      <use xlink:href="#ArialMT-61" transform="translate(333.349609 0)"/>
      <use xlink:href="#ArialMT-6c" transform="translate(388.964844 0)"/>
      <use xlink:href="#ArialMT-20" transform="translate(411.181641 0)"/>
      <use xlink:href="#ArialMT-74" transform="translate(438.964844 0)"/>
      <use xlink:href="#ArialMT-69" transform="translate(466.748047 0)"/>
      <use xlink:href="#ArialMT-6d" transform="translate(488.964844 0)"/>
      <use xlink:href="#ArialMT-65" transform="translate(572.265625 0)"/>
      <use xlink:href="#ArialMT-20" transform="translate(627.880859 0)"/>
      <use xlink:href="#ArialMT-2f" transform="translate(655.664062 0)"/>
      <use xlink:href="#ArialMT-20" transform="translate(683.447266 0)"/>
      <use xlink:href="#ArialMT-67" transform="translate(711.230469 0)"/>
      <use xlink:href="#ArialMT-28" transform="translate(766.845703 0)"/>
      <use xlink:href="#ArialMT-6e" transform="translate(800.146484 0)"/>
      <use xlink:href="#ArialMT-29" transform="translate(855.761719 0)"/>
     </g>
    </g>
   </g>
   <g id="FillBetweenPolyCollection_1"/>
   <g id="FillBetweenPolyCollection_2"/>
   <g id="FillBetweenPolyCollection_3"/>
   <g id="FillBetweenPolyCollection_4"/>
   <g id="line2d_8">
    <path d="M 71.733868 263.389061 
L 153.84957 263.389066 
L 235.965273 263.389067 
L 318.080975 263.389071 
" clip-path="url(#p4ee61d36f4)" style="fill: none; stroke: #4f5d75; stroke-width: 2.2; stroke-linecap: round"/>
    <defs>
     <path id="me263200725" d="M 0 4.5 
C 1.193414 4.5 2.338109 4.025852 3.181981 3.181981 
C 4.025852 2.338109 4.5 1.193414 4.5 0 
C 4.5 -1.193414 4.025852 -2.338109 3.181981 -3.181981 
C 2.338109 -4.025852 1.193414 -4.5 0 -4.5 
C -1.193414 -4.5 -2.338109 -4.025852 -3.181981 -3.181981 
C -4.025852 -2.338109 -4.5 -1.193414 -4.5 0 
C -4.5 1.193414 -4.025852 2.338109 -3.181981 3.181981 
C -2.338109 4.025852 -1.193414 4.5 0 4.5 
z
" style="stroke: #000000; stroke-width: 0.55"/>
    </defs>
    <g clip-path="url(#p4ee61d36f4)">
     <use xlink:href="#me263200725" x="71.733868" y="263.389061" style="fill: #4f5d75; stroke: #000000; stroke-width: 0.55"/>
     <use xlink:href="#me263200725" x="153.84957" y="263.389066" style="fill: #4f5d75; stroke: #000000; stroke-width: 0.55"/>
     <use xlink:href="#me263200725" x="235.965273" y="263.389067" style="fill: #4f5d75; stroke: #000000; stroke-width: 0.55"/>
     <use xlink:href="#me263200725" x="318.080975" y="263.389071" style="fill: #4f5d75; stroke: #000000; stroke-width: 0.55"/>
    </g>
   </g>
   <g id="line2d_9">
    <path d="M 71.733868 263.389036 
L 153.84957 263.38904 
L 235.965273 263.389048 
L 318.080975 263.389051 
" clip-path="url(#p4ee61d36f4)" style="fill: none; stroke: #ef8354; stroke-width: 2.2; stroke-linecap: round"/>
    <defs>
     <path id="m272bb35561" d="M -4.5 4.5 
L 4.5 4.5 
L 4.5 -4.5 
L -4.5 -4.5 
z
" style="stroke: #000000; stroke-width: 0.55; stroke-linejoin: miter"/>
    </defs>
    <g clip-path="url(#p4ee61d36f4)">
     <use xlink:href="#m272bb35561" x="71.733868" y="263.389036" style="fill: #ef8354; stroke: #000000; stroke-width: 0.55; stroke-linejoin: miter"/>
     <use xlink:href="#m272bb35561" x="153.84957" y="263.38904" style="fill: #ef8354; stroke: #000000; stroke-width: 0.55; stroke-linejoin: miter"/>
     <use xlink:href="#m272bb35561" x="235.965273" y="263.389048" style="fill: #ef8354; stroke: #000000; stroke-width: 0.55; stroke-linejoin: miter"/>
     <use xlink:href="#m272bb35561" x="318.080975" y="263.389051" style="fill: #ef8354; stroke: #000000; stroke-width: 0.55; stroke-linejoin: miter"/>
    </g>
   </g>
   <g id="line2d_10">
    <path d="M 71.733868 263.389081 
L 153.84957 263.389091 
L 235.965273 263.389091 
L 318.080975 263.389091 
" clip-path="url(#p4ee61d36f4)" style="fill: none; stroke: #2a9d8f; stroke-width: 2.2; stroke-linecap: round"/>
    <defs>
     <path id="m236b95fecf" d="M 0 -4.5 
L -4.5 4.5 
L 4.5 4.5 
z
" style="stroke: #000000; stroke-width: 0.55; stroke-linejoin: miter"/>
    </defs>
    <g clip-path="url(#p4ee61d36f4)">
     <use xlink:href="#m236b95fecf" x="71.733868" y="263.389081" style="fill: #2a9d8f; stroke: #000000; stroke-width: 0.55; stroke-linejoin: miter"/>
     <use xlink:href="#m236b95fecf" x="153.84957" y="263.389091" style="fill: #2a9d8f; stroke: #000000; stroke-width: 0.55; stroke-linejoin: miter"/>
     <use xlink:href="#m236b95fecf" x="235.965273" y="263.389091" style="fill: #2a9d8f; stroke: #000000; stroke-width: 0.55; stroke-linejoin: miter"/>
     <use xlink:href="#m236b95fecf" x="318.080975" y="263.389091" style="fill: #2a9d8f; stroke: #000000; stroke-width: 0.55; stroke-linejoin: miter"/>
    </g>
   </g>
   <g id="line2d_11">
    <path d="M 71.733868 263.389076 
L 153.84957 263.389067 
L 235.965273 263.389067 
L 318.080975 263.389071 
" clip-path="url(#p4ee61d36f4)" style="fill: none; stroke: #bc6c25; stroke-width: 2.2; stroke-linecap: round"/>
    <defs>
     <path id="m66ae711d89" d="M 0 6.363961 
L 6.363961 0 
L 0 -6.363961 
L -6.363961 0 
z
" style="stroke: #000000; stroke-width: 0.55; stroke-linejoin: miter"/>
    </defs>
    <g clip-path="url(#p4ee61d36f4)">
     <use xlink:href="#m66ae711d89" x="71.733868" y="263.389076" style="fill: #bc6c25; stroke: #000000; stroke-width: 0.55; stroke-linejoin: miter"/>
     <use xlink:href="#m66ae711d89" x="153.84957" y="263.389067" style="fill: #bc6c25; stroke: #000000; stroke-width: 0.55; stroke-linejoin: miter"/>
     <use xlink:href="#m66ae711d89" x="235.965273" y="263.389067" style="fill: #bc6c25; stroke: #000000; stroke-width: 0.55; stroke-linejoin: miter"/>
     <use xlink:href="#m66ae711d89" x="318.080975" y="263.389071" style="fill: #bc6c25; stroke: #000000; stroke-width: 0.55; stroke-linejoin: miter"/>
    </g>
   </g>
   <g id="line2d_12">
    <path d="M 59.416513 145.570909 
L 330.398331 145.570909 
" clip-path="url(#p4ee61d36f4)" style="fill: none; stroke-dasharray: 1.2,1.98; stroke-dashoffset: 0; stroke: #2b2d42; stroke-opacity: 0.8; stroke-width: 1.2"/>
   </g>
   <g id="patch_3">
    <path d="M 59.416513 269.28 
L 59.416513 139.68 
" style="fill: none; stroke: #cccccc; stroke-width: 1.875; stroke-linejoin: miter; stroke-linecap: square"/>
   </g>
   <g id="patch_4">
    <path d="M 59.416513 269.28 
L 330.398331 269.28 
" style="fill: none; stroke: #cccccc; stroke-width: 1.875; stroke-linejoin: miter; stroke-linecap: square"/>
   </g>
   <g id="text_10">
    <!-- Insertion Sort -->
    <g style="fill: #262626" transform="translate(140.315109 133.68) scale(0.1836 -0.1836)">
     <defs>
      <path id="ArialMT-6f" d="M 213 1659 
Q 213 2581 725 3025 
Q 1153 3394 1769 3394 
Q 2453 3394 2887 2945 
Q 3322 2497 3322 1706 
Q 3322 1066 3130 698 
Q 2938 331 2570 128 
Q 2203 -75 1769 -75 
Q 1072 -75 642 372 
Q 213 819 213 1659 
z
M 791 1659 
Q 791 1022 1069 705 
Q 1347 388 1769 388 
Q 2188 388 2466 706 
Q 2744 1025 2744 1678 
Q 2744 2294 2464 2611 
Q 2184 2928 1769 2928 
Q 1347 2928 1069 2612 
Q 791 2297 791 1659 
z
" transform="scale(0.015625)"/>
      <path id="ArialMT-53" d="M 288 1472 
L 859 1522 
Q 900 1178 1048 958 
Q 1197 738 1509 602 
Q 1822 466 2213 466 
Q 2559 466 2825 569 
Q 3091 672 3220 851 
Q 3350 1031 3350 1244 
Q 3350 1459 3225 1620 
Q 3100 1781 2813 1891 
Q 2628 1963 1997 2114 
Q 1366 2266 1113 2400 
Q 784 2572 623 2826 
Q 463 3081 463 3397 
Q 463 3744 659 4045 
Q 856 4347 1234 4503 
Q 1613 4659 2075 4659 
Q 2584 4659 2973 4495 
Q 3363 4331 3572 4012 
Q 3781 3694 3797 3291 
L 3216 3247 
Q 3169 3681 2898 3903 
Q 2628 4125 2100 4125 
Q 1550 4125 1298 3923 
Q 1047 3722 1047 3438 
Q 1047 3191 1225 3031 
Q 1400 2872 2139 2705 
Q 2878 2538 3153 2413 
Q 3553 2228 3743 1945 
Q 3934 1663 3934 1294 
Q 3934 928 3725 604 
Q 3516 281 3123 101 
Q 2731 -78 2241 -78 
Q 1619 -78 1198 103 
Q 778 284 539 648 
Q 300 1013 288 1472 
z
" transform="scale(0.015625)"/>
     </defs>
     <use xlink:href="#ArialMT-49"/>
     <use xlink:href="#ArialMT-6e" transform="translate(27.783203 0)"/>
     <use xlink:href="#ArialMT-73" transform="translate(83.398438 0)"/>
     <use xlink:href="#ArialMT-65" transform="translate(133.398438 0)"/>
     <use xlink:href="#ArialMT-72" transform="translate(189.013672 0)"/>
     <use xlink:href="#ArialMT-74" transform="translate(222.314453 0)"/>
     <use xlink:href="#ArialMT-69" transform="translate(250.097656 0)"/>
     <use xlink:href="#ArialMT-6f" transform="translate(272.314453 0)"/>
     <use xlink:href="#ArialMT-6e" transform="translate(327.929688 0)"/>
     <use xlink:href="#ArialMT-20" transform="translate(383.544922 0)"/>
     <use xlink:href="#ArialMT-53" transform="translate(411.328125 0)"/>
     <use xlink:href="#ArialMT-6f" transform="translate(478.027344 0)"/>
     <use xlink:href="#ArialMT-72" transform="translate(533.642578 0)"/>
     <use xlink:href="#ArialMT-74" transform="translate(566.943359 0)"/>
    </g>
   </g>
  </g>
  <g id="axes_2">
   <g id="patch_5">
    <path d="M 371.045603 269.28 
L 642.027422 269.28 
L 642.027422 139.68 
L 371.045603 139.68 
z
" style="fill: #ffffff"/>
   </g>
   <g id="matplotlib.axis_3">
    <g id="xtick_31">
     <g id="line2d_13">
      <path d="M 383.362959 269.28 
L 383.362959 139.68 
" clip-path="url(#p7b8326040c)" style="fill: none; stroke-dasharray: 5.55,2.4; stroke-dashoffset: 0; stroke: #cccccc; stroke-opacity: 0.35; stroke-width: 1.5"/>
     </g>
     <g id="text_11">
      <!-- 100 -->
      <g style="fill: #262626" transform="translate(371.65907 302.703059) rotate(-20) scale(0.1683 -0.1683)">
       <use xlink:href="#ArialMT-31"/>
       <use xlink:href="#ArialMT-30" transform="translate(55.615234 0)"/>
       <use xlink:href="#ArialMT-30" transform="translate(111.230469 0)"/>
      </g>
     </g>
    </g>
    <g id="xtick_32">
     <g id="line2d_14">
      <path d="M 465.478661 269.28 
L 465.478661 139.68 
" clip-path="url(#p7b8326040c)" style="fill: none; stroke-dasharray: 5.55,2.4; stroke-dashoffset: 0; stroke: #cccccc; stroke-opacity: 0.35; stroke-width: 1.5"/>
     </g>
     <g id="text_12">
      <!-- 1000 -->
      <g style="fill: #262626" transform="translate(449.377454 305.904045) rotate(-20) scale(0.1683 -0.1683)">
       <use xlink:href="#ArialMT-31"/>
       <use xlink:href="#ArialMT-30" transform="translate(55.615234 0)"/>
       <use xlink:href="#ArialMT-30" transform="translate(111.230469 0)"/>
       <use xlink:href="#ArialMT-30" transform="translate(166.845703 0)"/>
      </g>
     </g>
    </g>
    <g id="xtick_33">
     <g id="line2d_15">
      <path d="M 547.594364 269.28 
L 547.594364 139.68 
" clip-path="url(#p7b8326040c)" style="fill: none; stroke-dasharray: 5.55,2.4; stroke-dashoffset: 0; stroke: #cccccc; stroke-opacity: 0.35; stroke-width: 1.5"/>
     </g>
     <g id="text_13">
      <!-- 10000 -->
      <g style="fill: #262626" transform="translate(527.095837 309.105031) rotate(-20) scale(0.1683 -0.1683)">
       <use xlink:href="#ArialMT-31"/>
       <use xlink:href="#ArialMT-30" transform="translate(55.615234 0)"/>
       <use xlink:href="#ArialMT-30" transform="translate(111.230469 0)"/>
       <use xlink:href="#ArialMT-30" transform="translate(166.845703 0)"/>
       <use xlink:href="#ArialMT-30" transform="translate(222.460938 0)"/>
      </g>
     </g>
    </g>
    <g id="xtick_34">
     <g id="line2d_16">
      <path d="M 629.710066 269.28 
L 629.710066 139.68 
" clip-path="url(#p7b8326040c)" style="fill: none; stroke-dasharray: 5.55,2.4; stroke-dashoffset: 0; stroke: #cccccc; stroke-opacity: 0.35; stroke-width: 1.5"/>
     </g>
     <g id="text_14">
      <!-- 100000 -->
      <g style="fill: #262626" transform="translate(604.814221 312.306017) rotate(-20) scale(0.1683 -0.1683)">
       <use xlink:href="#ArialMT-31"/>
       <use xlink:href="#ArialMT-30" transform="translate(55.615234 0)"/>
       <use xlink:href="#ArialMT-30" transform="translate(111.230469 0)"/>
       <use xlink:href="#ArialMT-30" transform="translate(166.845703 0)"/>
       <use xlink:href="#ArialMT-30" transform="translate(222.460938 0)"/>
       <use xlink:href="#ArialMT-30" transform="translate(278.076172 0)"/>
      </g>
     </g>
    </g>
    <g id="xtick_35"/>
    <g id="xtick_36"/>
    <g id="xtick_37"/>
    <g id="xtick_38"/>
    <g id="xtick_39"/>
    <g id="xtick_40"/>
    <g id="xtick_41"/>
    <g id="xtick_42"/>
    <g id="xtick_43"/>
    <g id="xtick_44"/>
    <g id="xtick_45"/>
    <g id="xtick_46"/>
    <g id="xtick_47"/>
    <g id="xtick_48"/>
    <g id="xtick_49"/>
    <g id="xtick_50"/>
    <g id="xtick_51"/>
    <g id="xtick_52"/>
    <g id="xtick_53"/>
    <g id="xtick_54"/>
    <g id="xtick_55"/>
    <g id="xtick_56"/>
    <g id="xtick_57"/>
    <g id="xtick_58"/>
    <g id="xtick_59"/>
    <g id="xtick_60"/>
    <g id="text_15">
     <!-- Input size (n) -->
     <g style="fill: #262626" transform="translate(453.477547 334.81476) scale(0.1836 -0.1836)">
      <use xlink:href="#ArialMT-49"/>
      <use xlink:href="#ArialMT-6e" transform="translate(27.783203 0)"/>
      <use xlink:href="#ArialMT-70" transform="translate(83.398438 0)"/>
      <use xlink:href="#ArialMT-75" transform="translate(139.013672 0)"/>
      <use xlink:href="#ArialMT-74" transform="translate(194.628906 0)"/>
      <use xlink:href="#ArialMT-20" transform="translate(222.412109 0)"/>
      <use xlink:href="#ArialMT-73" transform="translate(250.195312 0)"/>
      <use xlink:href="#ArialMT-69" transform="translate(300.195312 0)"/>
      <use xlink:href="#ArialMT-7a" transform="translate(322.412109 0)"/>
      <use xlink:href="#ArialMT-65" transform="translate(372.412109 0)"/>
      <use xlink:href="#ArialMT-20" transform="translate(428.027344 0)"/>
      <use xlink:href="#ArialMT-28" transform="translate(455.810547 0)"/>
      <use xlink:href="#ArialMT-6e" transform="translate(489.111328 0)"/>
      <use xlink:href="#ArialMT-29" transform="translate(544.726562 0)"/>
     </g>
    </g>
   </g>
   <g id="matplotlib.axis_4">
    <g id="ytick_4">
     <g id="line2d_17">
      <path d="M 371.045603 263.389269 
L 642.027422 263.389269 
" clip-path="url(#p7b8326040c)" style="fill: none; stroke-dasharray: 5.55,2.4; stroke-dashoffset: 0; stroke: #cccccc; stroke-opacity: 0.35; stroke-width: 1.5"/>
     </g>
     <g id="text_16">
      <!-- 0.0 -->
      <g style="fill: #262626" transform="translate(335.151903 269.412568) scale(0.1683 -0.1683)">
       <use xlink:href="#ArialMT-30"/>
       <use xlink:href="#ArialMT-2e" transform="translate(55.615234 0)"/>
       <use xlink:href="#ArialMT-30" transform="translate(83.398438 0)"/>
      </g>
     </g>
    </g>
    <g id="ytick_5">
     <g id="line2d_18">
      <path d="M 371.045603 204.480089 
L 642.027422 204.480089 
" clip-path="url(#p7b8326040c)" style="fill: none; stroke-dasharray: 5.55,2.4; stroke-dashoffset: 0; stroke: #cccccc; stroke-opacity: 0.35; stroke-width: 1.5"/>
     </g>
     <g id="text_17">
      <!-- 0.5 -->
      <g style="fill: #262626" transform="translate(335.151903 210.503388) scale(0.1683 -0.1683)">
       <use xlink:href="#ArialMT-30"/>
       <use xlink:href="#ArialMT-2e" transform="translate(55.615234 0)"/>
       <use xlink:href="#ArialMT-35" transform="translate(83.398438 0)"/>
      </g>
     </g>
    </g>
    <g id="ytick_6">
     <g id="line2d_19">
      <path d="M 371.045603 145.570909 
L 642.027422 145.570909 
" clip-path="url(#p7b8326040c)" style="fill: none; stroke-dasharray: 5.55,2.4; stroke-dashoffset: 0; stroke: #cccccc; stroke-opacity: 0.35; stroke-width: 1.5"/>
     </g>
     <g id="text_18">
      <!-- 1.0 -->
      <g style="fill: #262626" transform="translate(335.151903 151.594208) scale(0.1683 -0.1683)">
       <use xlink:href="#ArialMT-31"/>
       <use xlink:href="#ArialMT-2e" transform="translate(55.615234 0)"/>
       <use xlink:href="#ArialMT-30" transform="translate(83.398438 0)"/>
      </g>
     </g>
    </g>
   </g>
   <g id="FillBetweenPolyCollection_5"/>
   <g id="FillBetweenPolyCollection_6"/>
   <g id="FillBetweenPolyCollection_7"/>
   <g id="FillBetweenPolyCollection_8"/>
   <g id="line2d_20">
    <path d="M 383.362959 263.389001 
L 465.478661 263.38897 
L 547.594364 263.388682 
L 629.710066 263.388734 
" clip-path="url(#p7b8326040c)" style="fill: none; stroke: #4f5d75; stroke-width: 2.2; stroke-linecap: round"/>
    <g clip-path="url(#p7b8326040c)">
     <use xlink:href="#me263200725" x="383.362959" y="263.389001" style="fill: #4f5d75; stroke: #000000; stroke-width: 0.55"/>
     <use xlink:href="#me263200725" x="465.478661" y="263.38897" style="fill: #4f5d75; stroke: #000000; stroke-width: 0.55"/>
     <use xlink:href="#me263200725" x="547.594364" y="263.388682" style="fill: #4f5d75; stroke: #000000; stroke-width: 0.55"/>
     <use xlink:href="#me263200725" x="629.710066" y="263.388734" style="fill: #4f5d75; stroke: #000000; stroke-width: 0.55"/>
    </g>
   </g>
   <g id="line2d_21">
    <path d="M 383.362959 263.389091 
L 465.478661 263.389041 
L 547.594364 263.38907 
L 629.710066 263.389091 
" clip-path="url(#p7b8326040c)" style="fill: none; stroke: #ef8354; stroke-width: 2.2; stroke-linecap: round"/>
    <g clip-path="url(#p7b8326040c)">
     <use xlink:href="#m272bb35561" x="383.362959" y="263.389091" style="fill: #ef8354; stroke: #000000; stroke-width: 0.55; stroke-linejoin: miter"/>
     <use xlink:href="#m272bb35561" x="465.478661" y="263.389041" style="fill: #ef8354; stroke: #000000; stroke-width: 0.55; stroke-linejoin: miter"/>
     <use xlink:href="#m272bb35561" x="547.594364" y="263.38907" style="fill: #ef8354; stroke: #000000; stroke-width: 0.55; stroke-linejoin: miter"/>
     <use xlink:href="#m272bb35561" x="629.710066" y="263.389091" style="fill: #ef8354; stroke: #000000; stroke-width: 0.55; stroke-linejoin: miter"/>
    </g>
   </g>
   <g id="line2d_22">
    <path d="M 383.362959 263.389047 
L 465.478661 263.38904 
L 547.594364 263.388972 
L 629.710066 263.388982 
" clip-path="url(#p7b8326040c)" style="fill: none; stroke: #2a9d8f; stroke-width: 2.2; stroke-linecap: round"/>
    <g clip-path="url(#p7b8326040c)">
     <use xlink:href="#m236b95fecf" x="383.362959" y="263.389047" style="fill: #2a9d8f; stroke: #000000; stroke-width: 0.55; stroke-linejoin: miter"/>
     <use xlink:href="#m236b95fecf" x="465.478661" y="263.38904" style="fill: #2a9d8f; stroke: #000000; stroke-width: 0.55; stroke-linejoin: miter"/>
     <use xlink:href="#m236b95fecf" x="547.594364" y="263.388972" style="fill: #2a9d8f; stroke: #000000; stroke-width: 0.55; stroke-linejoin: miter"/>
     <use xlink:href="#m236b95fecf" x="629.710066" y="263.388982" style="fill: #2a9d8f; stroke: #000000; stroke-width: 0.55; stroke-linejoin: miter"/>
    </g>
   </g>
   <g id="line2d_23">
    <path d="M 383.362959 263.388386 
L 465.478661 263.388614 
L 547.594364 263.388571 
L 629.710066 263.388634 
" clip-path="url(#p7b8326040c)" style="fill: none; stroke: #bc6c25; stroke-width: 2.2; stroke-linecap: round"/>
    <g clip-path="url(#p7b8326040c)">
     <use xlink:href="#m66ae711d89" x="383.362959" y="263.388386" style="fill: #bc6c25; stroke: #000000; stroke-width: 0.55; stroke-linejoin: miter"/>
     <use xlink:href="#m66ae711d89" x="465.478661" y="263.388614" style="fill: #bc6c25; stroke: #000000; stroke-width: 0.55; stroke-linejoin: miter"/>
     <use xlink:href="#m66ae711d89" x="547.594364" y="263.388571" style="fill: #bc6c25; stroke: #000000; stroke-width: 0.55; stroke-linejoin: miter"/>
     <use xlink:href="#m66ae711d89" x="629.710066" y="263.388634" style="fill: #bc6c25; stroke: #000000; stroke-width: 0.55; stroke-linejoin: miter"/>
    </g>
   </g>
   <g id="line2d_24">
    <path d="M 371.045603 145.570909 
L 642.027422 145.570909 
" clip-path="url(#p7b8326040c)" style="fill: none; stroke-dasharray: 1.2,1.98; stroke-dashoffset: 0; stroke: #2b2d42; stroke-opacity: 0.8; stroke-width: 1.2"/>
   </g>
   <g id="patch_6">
    <path d="M 371.045603 269.28 
L 371.045603 139.68 
" style="fill: none; stroke: #cccccc; stroke-width: 1.875; stroke-linejoin: miter; stroke-linecap: square"/>
   </g>
   <g id="patch_7">
    <path d="M 371.045603 269.28 
L 642.027422 269.28 
" style="fill: none; stroke: #cccccc; stroke-width: 1.875; stroke-linejoin: miter; stroke-linecap: square"/>
   </g>
   <g id="text_19">
    <!-- Quick Sort -->
    <g style="fill: #262626" transform="translate(463.685994 133.68) scale(0.1836 -0.1836)">
     <defs>
      <path id="ArialMT-51" d="M 3966 491 
Q 4388 200 4744 66 
L 4566 -356 
Q 4072 -178 3581 206 
Q 3072 -78 2456 -78 
Q 1834 -78 1328 222 
Q 822 522 548 1065 
Q 275 1609 275 2291 
Q 275 2969 550 3525 
Q 825 4081 1333 4372 
Q 1841 4663 2469 4663 
Q 3103 4663 3612 4361 
Q 4122 4059 4389 3517 
Q 4656 2975 4656 2294 
Q 4656 1728 4484 1276 
Q 4313 825 3966 491 
z
M 2631 1266 
Q 3156 1119 3497 828 
Q 4031 1316 4031 2294 
Q 4031 2850 3842 3265 
Q 3653 3681 3289 3911 
Q 2925 4141 2472 4141 
Q 1794 4141 1347 3677 
Q 900 3213 900 2291 
Q 900 1397 1342 919 
Q 1784 441 2472 441 
Q 2797 441 3084 563 
Q 2800 747 2484 825 
L 2631 1266 
z
" transform="scale(0.015625)"/>
      <path id="ArialMT-6b" d="M 425 0 
L 425 4581 
L 988 4581 
L 988 1969 
L 2319 3319 
L 3047 3319 
L 1778 2088 
L 3175 0 
L 2481 0 
L 1384 1697 
L 988 1316 
L 988 0 
L 425 0 
z
" transform="scale(0.015625)"/>
     </defs>
     <use xlink:href="#ArialMT-51"/>
     <use xlink:href="#ArialMT-75" transform="translate(77.783203 0)"/>
     <use xlink:href="#ArialMT-69" transform="translate(133.398438 0)"/>
     <use xlink:href="#ArialMT-63" transform="translate(155.615234 0)"/>
     <use xlink:href="#ArialMT-6b" transform="translate(205.615234 0)"/>
     <use xlink:href="#ArialMT-20" transform="translate(255.615234 0)"/>
     <use xlink:href="#ArialMT-53" transform="translate(283.398438 0)"/>
     <use xlink:href="#ArialMT-6f" transform="translate(350.097656 0)"/>
     <use xlink:href="#ArialMT-72" transform="translate(405.712891 0)"/>
     <use xlink:href="#ArialMT-74" transform="translate(439.013672 0)"/>
    </g>
   </g>
  </g>
  <g id="axes_3">
   <g id="patch_8">
    <path d="M 682.674694 269.28 
L 953.656512 269.28 
L 953.656512 139.68 
L 682.674694 139.68 
z
" style="fill: #ffffff"/>
   </g>
   <g id="matplotlib.axis_5">
    <g id="xtick_61">
     <g id="line2d_25">
      <path d="M 694.99205 269.28 
L 694.99205 139.68 
" clip-path="url(#pa08e0bfc86)" style="fill: none; stroke-dasharray: 5.55,2.4; stroke-dashoffset: 0; stroke: #cccccc; stroke-opacity: 0.35; stroke-width: 1.5"/>
     </g>
     <g id="text_20">
      <!-- 100 -->
      <g style="fill: #262626" transform="translate(683.288161 302.703059) rotate(-20) scale(0.1683 -0.1683)">
       <use xlink:href="#ArialMT-31"/>
       <use xlink:href="#ArialMT-30" transform="translate(55.615234 0)"/>
       <use xlink:href="#ArialMT-30" transform="translate(111.230469 0)"/>
      </g>
     </g>
    </g>
    <g id="xtick_62">
     <g id="line2d_26">
      <path d="M 777.107752 269.28 
L 777.107752 139.68 
" clip-path="url(#pa08e0bfc86)" style="fill: none; stroke-dasharray: 5.55,2.4; stroke-dashoffset: 0; stroke: #cccccc; stroke-opacity: 0.35; stroke-width: 1.5"/>
     </g>
     <g id="text_21">
      <!-- 1000 -->
      <g style="fill: #262626" transform="translate(761.006544 305.904045) rotate(-20) scale(0.1683 -0.1683)">
       <use xlink:href="#ArialMT-31"/>
       <use xlink:href="#ArialMT-30" transform="translate(55.615234 0)"/>
       <use xlink:href="#ArialMT-30" transform="translate(111.230469 0)"/>
       <use xlink:href="#ArialMT-30" transform="translate(166.845703 0)"/>
      </g>
     </g>
    </g>
    <g id="xtick_63">
     <g id="line2d_27">
      <path d="M 859.223455 269.28 
L 859.223455 139.68 
" clip-path="url(#pa08e0bfc86)" style="fill: none; stroke-dasharray: 5.55,2.4; stroke-dashoffset: 0; stroke: #cccccc; stroke-opacity: 0.35; stroke-width: 1.5"/>
     </g>
     <g id="text_22">
      <!-- 10000 -->
      <g style="fill: #262626" transform="translate(838.724928 309.105031) rotate(-20) scale(0.1683 -0.1683)">
       <use xlink:href="#ArialMT-31"/>
       <use xlink:href="#ArialMT-30" transform="translate(55.615234 0)"/>
       <use xlink:href="#ArialMT-30" transform="translate(111.230469 0)"/>
       <use xlink:href="#ArialMT-30" transform="translate(166.845703 0)"/>
       <use xlink:href="#ArialMT-30" transform="translate(222.460938 0)"/>
      </g>
     </g>
    </g>
    <g id="xtick_64">
     <g id="line2d_28">
      <path d="M 941.339157 269.28 
L 941.339157 139.68 
" clip-path="url(#pa08e0bfc86)" style="fill: none; stroke-dasharray: 5.55,2.4; stroke-dashoffset: 0; stroke: #cccccc; stroke-opacity: 0.35; stroke-width: 1.5"/>
     </g>
     <g id="text_23">
      <!-- 100000 -->
      <g style="fill: #262626" transform="translate(916.443312 312.306017) rotate(-20) scale(0.1683 -0.1683)">
       <use xlink:href="#ArialMT-31"/>
       <use xlink:href="#ArialMT-30" transform="translate(55.615234 0)"/>
       <use xlink:href="#ArialMT-30" transform="translate(111.230469 0)"/>
       <use xlink:href="#ArialMT-30" transform="translate(166.845703 0)"/>
       <use xlink:href="#ArialMT-30" transform="translate(222.460938 0)"/>
       <use xlink:href="#ArialMT-30" transform="translate(278.076172 0)"/>
      </g>
     </g>
    </g>
    <g id="xtick_65"/>
    <g id="xtick_66"/>
    <g id="xtick_67"/>
    <g id="xtick_68"/>
    <g id="xtick_69"/>
    <g id="xtick_70"/>
    <g id="xtick_71"/>
    <g id="xtick_72"/>
    <g id="xtick_73"/>
    <g id="xtick_74"/>
    <g id="xtick_75"/>
    <g id="xtick_76"/>
    <g id="xtick_77"/>
    <g id="xtick_78"/>
    <g id="xtick_79"/>
    <g id="xtick_80"/>
    <g id="xtick_81"/>
    <g id="xtick_82"/>
    <g id="xtick_83"/>
    <g id="xtick_84"/>
    <g id="xtick_85"/>
    <g id="xtick_86"/>
    <g id="xtick_87"/>
    <g id="xtick_88"/>
    <g id="xtick_89"/>
    <g id="xtick_90"/>
    <g id="text_24">
     <!-- Input size (n) -->
     <g style="fill: #262626" transform="translate(765.106638 334.81476) scale(0.1836 -0.1836)">
      <use xlink:href="#ArialMT-49"/>
      <use xlink:href="#ArialMT-6e" transform="translate(27.783203 0)"/>
      <use xlink:href="#ArialMT-70" transform="translate(83.398438 0)"/>
      <use xlink:href="#ArialMT-75" transform="translate(139.013672 0)"/>
      <use xlink:href="#ArialMT-74" transform="translate(194.628906 0)"/>
      <use xlink:href="#ArialMT-20" transform="translate(222.412109 0)"/>
      <use xlink:href="#ArialMT-73" transform="translate(250.195312 0)"/>
      <use xlink:href="#ArialMT-69" transform="translate(300.195312 0)"/>
      <use xlink:href="#ArialMT-7a" transform="translate(322.412109 0)"/>
      <use xlink:href="#ArialMT-65" transform="translate(372.412109 0)"/>
      <use xlink:href="#ArialMT-20" transform="translate(428.027344 0)"/>
      <use xlink:href="#ArialMT-28" transform="translate(455.810547 0)"/>
      <use xlink:href="#ArialMT-6e" transform="translate(489.111328 0)"/>
      <use xlink:href="#ArialMT-29" transform="translate(544.726562 0)"/>
     </g>
    </g>
   </g>
   <g id="matplotlib.axis_6">
    <g id="ytick_7">
     <g id="line2d_29">
      <path d="M 682.674694 263.3893 
L 953.656512 263.3893 
" clip-path="url(#pa08e0bfc86)" style="fill: none; stroke-dasharray: 5.55,2.4; stroke-dashoffset: 0; stroke: #cccccc; stroke-opacity: 0.35; stroke-width: 1.5"/>
     </g>
     <g id="text_25">
      <!-- 0.0 -->
      <g style="fill: #262626" transform="translate(646.780994 269.4126) scale(0.1683 -0.1683)">
       <use xlink:href="#ArialMT-30"/>
       <use xlink:href="#ArialMT-2e" transform="translate(55.615234 0)"/>
       <use xlink:href="#ArialMT-30" transform="translate(83.398438 0)"/>
      </g>
     </g>
    </g>
    <g id="ytick_8">
     <g id="line2d_30">
      <path d="M 682.674694 204.480105 
L 953.656512 204.480105 
" clip-path="url(#pa08e0bfc86)" style="fill: none; stroke-dasharray: 5.55,2.4; stroke-dashoffset: 0; stroke: #cccccc; stroke-opacity: 0.35; stroke-width: 1.5"/>
     </g>
     <g id="text_26">
      <!-- 0.5 -->
      <g style="fill: #262626" transform="translate(646.780994 210.503404) scale(0.1683 -0.1683)">
       <use xlink:href="#ArialMT-30"/>
       <use xlink:href="#ArialMT-2e" transform="translate(55.615234 0)"/>
       <use xlink:href="#ArialMT-35" transform="translate(83.398438 0)"/>
      </g>
     </g>
    </g>
    <g id="ytick_9">
     <g id="line2d_31">
      <path d="M 682.674694 145.570909 
L 953.656512 145.570909 
" clip-path="url(#pa08e0bfc86)" style="fill: none; stroke-dasharray: 5.55,2.4; stroke-dashoffset: 0; stroke: #cccccc; stroke-opacity: 0.35; stroke-width: 1.5"/>
     </g>
     <g id="text_27">
      <!-- 1.0 -->
      <g style="fill: #262626" transform="translate(646.780994 151.594208) scale(0.1683 -0.1683)">
       <use xlink:href="#ArialMT-31"/>
       <use xlink:href="#ArialMT-2e" transform="translate(55.615234 0)"/>
       <use xlink:href="#ArialMT-30" transform="translate(83.398438 0)"/>
      </g>
     </g>
    </g>
   </g>
   <g id="FillBetweenPolyCollection_9"/>
   <g id="FillBetweenPolyCollection_10"/>
   <g id="FillBetweenPolyCollection_11"/>
   <g id="FillBetweenPolyCollection_12"/>
   <g id="line2d_32">
    <path d="M 694.99205 263.388763 
L 777.107752 263.38905 
L 859.223455 263.388738 
L 941.339157 263.388786 
" clip-path="url(#pa08e0bfc86)" style="fill: none; stroke: #4f5d75; stroke-width: 2.2; stroke-linecap: round"/>
    <g clip-path="url(#pa08e0bfc86)">
     <use xlink:href="#me263200725" x="694.99205" y="263.388763" style="fill: #4f5d75; stroke: #000000; stroke-width: 0.55"/>
     <use xlink:href="#me263200725" x="777.107752" y="263.38905" style="fill: #4f5d75; stroke: #000000; stroke-width: 0.55"/>
     <use xlink:href="#me263200725" x="859.223455" y="263.388738" style="fill: #4f5d75; stroke: #000000; stroke-width: 0.55"/>
     <use xlink:href="#me263200725" x="941.339157" y="263.388786" style="fill: #4f5d75; stroke: #000000; stroke-width: 0.55"/>
    </g>
   </g>
   <g id="line2d_33">
    <path d="M 694.99205 263.388938 
L 777.107752 263.389091 
L 859.223455 263.388762 
L 941.339157 263.38892 
" clip-path="url(#pa08e0bfc86)" style="fill: none; stroke: #ef8354; stroke-width: 2.2; stroke-linecap: round"/>
    <g clip-path="url(#pa08e0bfc86)">
     <use xlink:href="#m272bb35561" x="694.99205" y="263.388938" style="fill: #ef8354; stroke: #000000; stroke-width: 0.55; stroke-linejoin: miter"/>
     <use xlink:href="#m272bb35561" x="777.107752" y="263.389091" style="fill: #ef8354; stroke: #000000; stroke-width: 0.55; stroke-linejoin: miter"/>
     <use xlink:href="#m272bb35561" x="859.223455" y="263.388762" style="fill: #ef8354; stroke: #000000; stroke-width: 0.55; stroke-linejoin: miter"/>
     <use xlink:href="#m272bb35561" x="941.339157" y="263.38892" style="fill: #ef8354; stroke: #000000; stroke-width: 0.55; stroke-linejoin: miter"/>
    </g>
   </g>
   <g id="line2d_34">
    <path d="M 694.99205 263.388887 
L 777.107752 263.389039 
L 859.223455 263.388756 
L 941.339157 263.38892 
" clip-path="url(#pa08e0bfc86)" style="fill: none; stroke: #2a9d8f; stroke-width: 2.2; stroke-linecap: round"/>
    <g clip-path="url(#pa08e0bfc86)">
     <use xlink:href="#m236b95fecf" x="694.99205" y="263.388887" style="fill: #2a9d8f; stroke: #000000; stroke-width: 0.55; stroke-linejoin: miter"/>
     <use xlink:href="#m236b95fecf" x="777.107752" y="263.389039" style="fill: #2a9d8f; stroke: #000000; stroke-width: 0.55; stroke-linejoin: miter"/>
     <use xlink:href="#m236b95fecf" x="859.223455" y="263.388756" style="fill: #2a9d8f; stroke: #000000; stroke-width: 0.55; stroke-linejoin: miter"/>
     <use xlink:href="#m236b95fecf" x="941.339157" y="263.38892" style="fill: #2a9d8f; stroke: #000000; stroke-width: 0.55; stroke-linejoin: miter"/>
    </g>
   </g>
   <g id="line2d_35">
    <path d="M 694.99205 263.388207 
L 777.107752 263.388782 
L 859.223455 263.388887 
L 941.339157 263.388408 
" clip-path="url(#pa08e0bfc86)" style="fill: none; stroke: #bc6c25; stroke-width: 2.2; stroke-linecap: round"/>
    <g clip-path="url(#pa08e0bfc86)">
     <use xlink:href="#m66ae711d89" x="694.99205" y="263.388207" style="fill: #bc6c25; stroke: #000000; stroke-width: 0.55; stroke-linejoin: miter"/>
     <use xlink:href="#m66ae711d89" x="777.107752" y="263.388782" style="fill: #bc6c25; stroke: #000000; stroke-width: 0.55; stroke-linejoin: miter"/>
     <use xlink:href="#m66ae711d89" x="859.223455" y="263.388887" style="fill: #bc6c25; stroke: #000000; stroke-width: 0.55; stroke-linejoin: miter"/>
     <use xlink:href="#m66ae711d89" x="941.339157" y="263.388408" style="fill: #bc6c25; stroke: #000000; stroke-width: 0.55; stroke-linejoin: miter"/>
    </g>
   </g>
   <g id="line2d_36">
    <path d="M 682.674694 145.570909 
L 953.656512 145.570909 
" clip-path="url(#pa08e0bfc86)" style="fill: none; stroke-dasharray: 1.2,1.98; stroke-dashoffset: 0; stroke: #2b2d42; stroke-opacity: 0.8; stroke-width: 1.2"/>
   </g>
   <g id="patch_9">
    <path d="M 682.674694 269.28 
L 682.674694 139.68 
" style="fill: none; stroke: #cccccc; stroke-width: 1.875; stroke-linejoin: miter; stroke-linecap: square"/>
   </g>
   <g id="patch_10">
    <path d="M 682.674694 269.28 
L 953.656512 269.28 
" style="fill: none; stroke: #cccccc; stroke-width: 1.875; stroke-linejoin: miter; stroke-linecap: square"/>
   </g>
   <g id="text_28">
    <!-- Counting Sort -->
    <g style="fill: #262626" transform="translate(762.035641 133.68) scale(0.1836 -0.1836)">
     <defs>
      <path id="ArialMT-43" d="M 3763 1606 
L 4369 1453 
Q 4178 706 3683 314 
Q 3188 -78 2472 -78 
Q 1731 -78 1267 223 
Q 803 525 561 1097 
Q 319 1669 319 2325 
Q 319 3041 592 3573 
Q 866 4106 1370 4382 
Q 1875 4659 2481 4659 
Q 3169 4659 3637 4309 
Q 4106 3959 4291 3325 
L 3694 3184 
Q 3534 3684 3231 3912 
Q 2928 4141 2469 4141 
Q 1941 4141 1586 3887 
Q 1231 3634 1087 3207 
Q 944 2781 944 2328 
Q 944 1744 1114 1308 
Q 1284 872 1643 656 
Q 2003 441 2422 441 
Q 2931 441 3284 734 
Q 3638 1028 3763 1606 
z
" transform="scale(0.015625)"/>
     </defs>
     <use xlink:href="#ArialMT-43"/>
     <use xlink:href="#ArialMT-6f" transform="translate(72.216797 0)"/>
     <use xlink:href="#ArialMT-75" transform="translate(127.832031 0)"/>
     <use xlink:href="#ArialMT-6e" transform="translate(183.447266 0)"/>
     <use xlink:href="#ArialMT-74" transform="translate(239.0625 0)"/>
     <use xlink:href="#ArialMT-69" transform="translate(266.845703 0)"/>
     <use xlink:href="#ArialMT-6e" transform="translate(289.0625 0)"/>
     <use xlink:href="#ArialMT-67" transform="translate(344.677734 0)"/>
     <use xlink:href="#ArialMT-20" transform="translate(400.292969 0)"/>
     <use xlink:href="#ArialMT-53" transform="translate(428.076172 0)"/>
     <use xlink:href="#ArialMT-6f" transform="translate(494.775391 0)"/>
     <use xlink:href="#ArialMT-72" transform="translate(550.390625 0)"/>
     <use xlink:href="#ArialMT-74" transform="translate(583.691406 0)"/>
    </g>
   </g>
  </g>
  <g id="text_29">
   <!-- Empirical Ratio T(n)/g(n) by Algorithm -->
   <g style="fill: #262626" transform="translate(323.586403 19.575469) scale(0.17 -0.17)">
    <defs>
     <path id="Arial-BoldMT-45" d="M 466 0 
L 466 4581 
L 3863 4581 
L 3863 3806 
L 1391 3806 
L 1391 2791 
L 3691 2791 
L 3691 2019 
L 1391 2019 
L 1391 772 
L 3950 772 
L 3950 0 
L 466 0 
z
" transform="scale(0.015625)"/>
     <path id="Arial-BoldMT-6d" d="M 394 3319 
L 1203 3319 
L 1203 2866 
Q 1638 3394 2238 3394 
Q 2556 3394 2790 3262 
Q 3025 3131 3175 2866 
Q 3394 3131 3647 3262 
Q 3900 3394 4188 3394 
Q 4553 3394 4806 3245 
Q 5059 3097 5184 2809 
Q 5275 2597 5275 2122 
L 5275 0 
L 4397 0 
L 4397 1897 
Q 4397 2391 4306 2534 
Q 4184 2722 3931 2722 
Q 3747 2722 3584 2609 
Q 3422 2497 3350 2280 
Q 3278 2063 3278 1594 
L 3278 0 
L 2400 0 
L 2400 1819 
Q 2400 2303 2353 2443 
Q 2306 2584 2207 2653 
Q 2109 2722 1941 2722 
Q 1738 2722 1575 2612 
Q 1413 2503 1342 2297 
Q 1272 2091 1272 1613 
L 1272 0 
L 394 0 
L 394 3319 
z
" transform="scale(0.015625)"/>
     <path id="Arial-BoldMT-70" d="M 434 3319 
L 1253 3319 
L 1253 2831 
Q 1413 3081 1684 3237 
Q 1956 3394 2288 3394 
Q 2866 3394 3269 2941 
Q 3672 2488 3672 1678 
Q 3672 847 3265 386 
Q 2859 -75 2281 -75 
Q 2006 -75 1782 34 
Q 1559 144 1313 409 
L 1313 -1263 
L 434 -1263 
L 434 3319 
z
M 1303 1716 
Q 1303 1156 1525 889 
Q 1747 622 2066 622 
Q 2372 622 2575 867 
Q 2778 1113 2778 1672 
Q 2778 2194 2568 2447 
Q 2359 2700 2050 2700 
Q 1728 2700 1515 2451 
Q 1303 2203 1303 1716 
z
" transform="scale(0.015625)"/>
     <path id="Arial-BoldMT-69" d="M 459 3769 
L 459 4581 
L 1338 4581 
L 1338 3769 
L 459 3769 
z
M 459 0 
L 459 3319 
L 1338 3319 
L 1338 0 
L 459 0 
z
" transform="scale(0.015625)"/>
     <path id="Arial-BoldMT-72" d="M 1300 0 
L 422 0 
L 422 3319 
L 1238 3319 
L 1238 2847 
Q 1447 3181 1614 3287 
Q 1781 3394 1994 3394 
Q 2294 3394 2572 3228 
L 2300 2463 
Q 2078 2606 1888 2606 
Q 1703 2606 1575 2504 
Q 1447 2403 1373 2137 
Q 1300 1872 1300 1025 
L 1300 0 
z
" transform="scale(0.015625)"/>
     <path id="Arial-BoldMT-63" d="M 3353 2338 
L 2488 2181 
Q 2444 2441 2289 2572 
Q 2134 2703 1888 2703 
Q 1559 2703 1364 2476 
Q 1169 2250 1169 1719 
Q 1169 1128 1367 884 
Q 1566 641 1900 641 
Q 2150 641 2309 783 
Q 2469 925 2534 1272 
L 3397 1125 
Q 3263 531 2881 228 
Q 2500 -75 1859 -75 
Q 1131 -75 698 384 
Q 266 844 266 1656 
Q 266 2478 700 2936 
Q 1134 3394 1875 3394 
Q 2481 3394 2839 3133 
Q 3197 2872 3353 2338 
z
" transform="scale(0.015625)"/>
     <path id="Arial-BoldMT-61" d="M 1116 2306 
L 319 2450 
Q 453 2931 781 3162 
Q 1109 3394 1756 3394 
Q 2344 3394 2631 3255 
Q 2919 3116 3036 2902 
Q 3153 2688 3153 2116 
L 3144 1091 
Q 3144 653 3186 445 
Q 3228 238 3344 0 
L 2475 0 
Q 2441 88 2391 259 
Q 2369 338 2359 363 
Q 2134 144 1878 34 
Q 1622 -75 1331 -75 
Q 819 -75 523 203 
Q 228 481 228 906 
Q 228 1188 362 1408 
Q 497 1628 739 1745 
Q 981 1863 1438 1950 
Q 2053 2066 2291 2166 
L 2291 2253 
Q 2291 2506 2166 2614 
Q 2041 2722 1694 2722 
Q 1459 2722 1328 2630 
Q 1197 2538 1116 2306 
z
M 2291 1594 
Q 2122 1538 1756 1459 
Q 1391 1381 1278 1306 
Q 1106 1184 1106 997 
Q 1106 813 1243 678 
Q 1381 544 1594 544 
Q 1831 544 2047 700 
Q 2206 819 2256 991 
Q 2291 1103 2291 1419 
L 2291 1594 
z
" transform="scale(0.015625)"/>
     <path id="Arial-BoldMT-6c" d="M 459 0 
L 459 4581 
L 1338 4581 
L 1338 0 
L 459 0 
z
" transform="scale(0.015625)"/>
     <path id="Arial-BoldMT-20" transform="scale(0.015625)"/>
     <path id="Arial-BoldMT-52" d="M 469 0 
L 469 4581 
L 2416 4581 
Q 3150 4581 3483 4457 
Q 3816 4334 4016 4018 
Q 4216 3703 4216 3297 
Q 4216 2781 3912 2445 
Q 3609 2109 3006 2022 
Q 3306 1847 3501 1637 
Q 3697 1428 4028 894 
L 4588 0 
L 3481 0 
L 2813 997 
Q 2456 1531 2325 1670 
Q 2194 1809 2047 1861 
Q 1900 1913 1581 1913 
L 1394 1913 
L 1394 0 
L 469 0 
z
M 1394 2644 
L 2078 2644 
Q 2744 2644 2909 2700 
Q 3075 2756 3169 2893 
Q 3263 3031 3263 3238 
Q 3263 3469 3139 3611 
Q 3016 3753 2791 3791 
Q 2678 3806 2116 3806 
L 1394 3806 
L 1394 2644 
z
" transform="scale(0.015625)"/>
     <path id="Arial-BoldMT-74" d="M 1981 3319 
L 1981 2619 
L 1381 2619 
L 1381 1281 
Q 1381 875 1398 808 
Q 1416 741 1477 697 
Q 1538 653 1625 653 
Q 1747 653 1978 738 
L 2053 56 
Q 1747 -75 1359 -75 
Q 1122 -75 931 4 
Q 741 84 652 211 
Q 563 338 528 553 
Q 500 706 500 1172 
L 500 2619 
L 97 2619 
L 97 3319 
L 500 3319 
L 500 3978 
L 1381 4491 
L 1381 3319 
L 1981 3319 
z
" transform="scale(0.015625)"/>
     <path id="Arial-BoldMT-6f" d="M 256 1706 
Q 256 2144 472 2553 
Q 688 2963 1083 3178 
Q 1478 3394 1966 3394 
Q 2719 3394 3200 2905 
Q 3681 2416 3681 1669 
Q 3681 916 3195 420 
Q 2709 -75 1972 -75 
Q 1516 -75 1102 131 
Q 688 338 472 736 
Q 256 1134 256 1706 
z
M 1156 1659 
Q 1156 1166 1390 903 
Q 1625 641 1969 641 
Q 2313 641 2545 903 
Q 2778 1166 2778 1666 
Q 2778 2153 2545 2415 
Q 2313 2678 1969 2678 
Q 1625 2678 1390 2415 
Q 1156 2153 1156 1659 
z
" transform="scale(0.015625)"/>
     <path id="Arial-BoldMT-54" d="M 1497 0 
L 1497 3806 
L 138 3806 
L 138 4581 
L 3778 4581 
L 3778 3806 
L 2422 3806 
L 2422 0 
L 1497 0 
z
" transform="scale(0.015625)"/>
     <path id="Arial-BoldMT-28" d="M 1916 -1347 
L 1313 -1347 
Q 834 -625 584 153 
Q 334 931 334 1659 
Q 334 2563 644 3369 
Q 913 4069 1325 4659 
L 1925 4659 
Q 1497 3713 1336 3048 
Q 1175 2384 1175 1641 
Q 1175 1128 1270 590 
Q 1366 53 1531 -431 
Q 1641 -750 1916 -1347 
z
" transform="scale(0.015625)"/>
     <path id="Arial-BoldMT-6e" d="M 3478 0 
L 2600 0 
L 2600 1694 
Q 2600 2231 2544 2389 
Q 2488 2547 2361 2634 
Q 2234 2722 2056 2722 
Q 1828 2722 1647 2597 
Q 1466 2472 1398 2265 
Q 1331 2059 1331 1503 
L 1331 0 
L 453 0 
L 453 3319 
L 1269 3319 
L 1269 2831 
Q 1703 3394 2363 3394 
Q 2653 3394 2893 3289 
Q 3134 3184 3257 3021 
Q 3381 2859 3429 2653 
Q 3478 2447 3478 2063 
L 3478 0 
z
" transform="scale(0.015625)"/>
     <path id="Arial-BoldMT-29" d="M 216 -1347 
Q 475 -791 581 -494 
Q 688 -197 778 190 
Q 869 578 912 926 
Q 956 1275 956 1641 
Q 956 2384 797 3048 
Q 638 3713 209 4659 
L 806 4659 
Q 1278 3988 1539 3234 
Q 1800 2481 1800 1706 
Q 1800 1053 1594 306 
Q 1359 -531 822 -1347 
L 216 -1347 
z
" transform="scale(0.015625)"/>
     <path id="Arial-BoldMT-2f" d="M -9 -78 
L 1125 4659 
L 1784 4659 
L 638 -78 
L -9 -78 
z
" transform="scale(0.015625)"/>
     <path id="Arial-BoldMT-67" d="M 378 -219 
L 1381 -341 
Q 1406 -516 1497 -581 
Q 1622 -675 1891 -675 
Q 2234 -675 2406 -572 
Q 2522 -503 2581 -350 
Q 2622 -241 2622 53 
L 2622 538 
Q 2228 0 1628 0 
Q 959 0 569 566 
Q 263 1013 263 1678 
Q 263 2513 664 2953 
Q 1066 3394 1663 3394 
Q 2278 3394 2678 2853 
L 2678 3319 
L 3500 3319 
L 3500 341 
Q 3500 -247 3403 -537 
Q 3306 -828 3131 -993 
Q 2956 -1159 2664 -1253 
Q 2372 -1347 1925 -1347 
Q 1081 -1347 728 -1058 
Q 375 -769 375 -325 
Q 375 -281 378 -219 
z
M 1163 1728 
Q 1163 1200 1367 954 
Q 1572 709 1872 709 
Q 2194 709 2416 961 
Q 2638 1213 2638 1706 
Q 2638 2222 2425 2472 
Q 2213 2722 1888 2722 
Q 1572 2722 1367 2476 
Q 1163 2231 1163 1728 
z
" transform="scale(0.015625)"/>
     <path id="Arial-BoldMT-62" d="M 422 0 
L 422 4581 
L 1300 4581 
L 1300 2931 
Q 1706 3394 2263 3394 
Q 2869 3394 3266 2955 
Q 3663 2516 3663 1694 
Q 3663 844 3258 384 
Q 2853 -75 2275 -75 
Q 1991 -75 1714 67 
Q 1438 209 1238 488 
L 1238 0 
L 422 0 
z
M 1294 1731 
Q 1294 1216 1456 969 
Q 1684 619 2063 619 
Q 2353 619 2558 867 
Q 2763 1116 2763 1650 
Q 2763 2219 2556 2470 
Q 2350 2722 2028 2722 
Q 1713 2722 1503 2476 
Q 1294 2231 1294 1731 
z
" transform="scale(0.015625)"/>
     <path id="Arial-BoldMT-79" d="M 44 3319 
L 978 3319 
L 1772 963 
L 2547 3319 
L 3456 3319 
L 2284 125 
L 2075 -453 
Q 1959 -744 1854 -897 
Q 1750 -1050 1614 -1145 
Q 1478 -1241 1279 -1294 
Q 1081 -1347 831 -1347 
Q 578 -1347 334 -1294 
L 256 -606 
Q 463 -647 628 -647 
Q 934 -647 1081 -467 
Q 1228 -288 1306 -9 
L 44 3319 
z
" transform="scale(0.015625)"/>
     <path id="Arial-BoldMT-41" d="M 4597 0 
L 3591 0 
L 3191 1041 
L 1359 1041 
L 981 0 
L 0 0 
L 1784 4581 
L 2763 4581 
L 4597 0 
z
M 2894 1813 
L 2263 3513 
L 1644 1813 
L 2894 1813 
z
" transform="scale(0.015625)"/>
     <path id="Arial-BoldMT-68" d="M 1334 4581 
L 1334 2897 
Q 1759 3394 2350 3394 
Q 2653 3394 2897 3281 
Q 3141 3169 3264 2994 
Q 3388 2819 3433 2606 
Q 3478 2394 3478 1947 
L 3478 0 
L 2600 0 
L 2600 1753 
Q 2600 2275 2550 2415 
Q 2500 2556 2373 2639 
Q 2247 2722 2056 2722 
Q 1838 2722 1666 2615 
Q 1494 2509 1414 2295 
Q 1334 2081 1334 1663 
L 1334 0 
L 456 0 
L 456 4581 
L 1334 4581 
z
" transform="scale(0.015625)"/>
    </defs>
    <use xlink:href="#Arial-BoldMT-45"/>
    <use xlink:href="#Arial-BoldMT-6d" transform="translate(66.699219 0)"/>
    <use xlink:href="#Arial-BoldMT-70" transform="translate(155.615234 0)"/>
    <use xlink:href="#Arial-BoldMT-69" transform="translate(216.699219 0)"/>
    <use xlink:href="#Arial-BoldMT-72" transform="translate(244.482422 0)"/>
    <use xlink:href="#Arial-BoldMT-69" transform="translate(283.398438 0)"/>
    <use xlink:href="#Arial-BoldMT-63" transform="translate(311.181641 0)"/>
    <use xlink:href="#Arial-BoldMT-61" transform="translate(366.796875 0)"/>
    <use xlink:href="#Arial-BoldMT-6c" transform="translate(422.412109 0)"/>
    <use xlink:href="#Arial-BoldMT-20" transform="translate(450.195312 0)"/>
    <use xlink:href="#Arial-BoldMT-52" transform="translate(477.978516 0)"/>
    <use xlink:href="#Arial-BoldMT-61" transform="translate(550.195312 0)"/>
    <use xlink:href="#Arial-BoldMT-74" transform="translate(605.810547 0)"/>
    <use xlink:href="#Arial-BoldMT-69" transform="translate(639.111328 0)"/>
    <use xlink:href="#Arial-BoldMT-6f" transform="translate(666.894531 0)"/>
    <use xlink:href="#Arial-BoldMT-20" transform="translate(727.978516 0)"/>
    <use xlink:href="#Arial-BoldMT-54" transform="translate(755.761719 0)"/>
    <use xlink:href="#Arial-BoldMT-28" transform="translate(816.845703 0)"/>
    <use xlink:href="#Arial-BoldMT-6e" transform="translate(850.146484 0)"/>
    <use xlink:href="#Arial-BoldMT-29" transform="translate(911.230469 0)"/>
    <use xlink:href="#Arial-BoldMT-2f" transform="translate(944.53125 0)"/>
    <use xlink:href="#Arial-BoldMT-67" transform="translate(972.314453 0)"/>
    <use xlink:href="#Arial-BoldMT-28" transform="translate(1033.398438 0)"/>
    <use xlink:href="#Arial-BoldMT-6e" transform="translate(1066.699219 0)"/>
    <use xlink:href="#Arial-BoldMT-29" transform="translate(1127.783203 0)"/>
    <use xlink:href="#Arial-BoldMT-20" transform="translate(1161.083984 0)"/>
    <use xlink:href="#Arial-BoldMT-62" transform="translate(1188.867188 0)"/>
    <use xlink:href="#Arial-BoldMT-79" transform="translate(1249.951172 0)"/>
    <use xlink:href="#Arial-BoldMT-20" transform="translate(1305.566406 0)"/>
    <use xlink:href="#Arial-BoldMT-41" transform="translate(1329.599609 0)"/>
    <use xlink:href="#Arial-BoldMT-6c" transform="translate(1401.816406 0)"/>
    <use xlink:href="#Arial-BoldMT-67" transform="translate(1429.599609 0)"/>
    <use xlink:href="#Arial-BoldMT-6f" transform="translate(1490.683594 0)"/>
    <use xlink:href="#Arial-BoldMT-72" transform="translate(1551.767578 0)"/>
    <use xlink:href="#Arial-BoldMT-69" transform="translate(1590.683594 0)"/>
    <use xlink:href="#Arial-BoldMT-74" transform="translate(1618.466797 0)"/>
    <use xlink:href="#Arial-BoldMT-68" transform="translate(1651.767578 0)"/>
    <use xlink:href="#Arial-BoldMT-6d" transform="translate(1712.851562 0)"/>
   </g>
  </g>
  <g id="legend_1">
   <g id="patch_11">
    <path d="M 280.907419 81.286875 
L 672.549606 81.286875 
Q 674.549606 81.286875 674.549606 79.286875 
L 674.549606 51.64 
Q 674.549606 49.64 672.549606 49.64 
L 280.907419 49.64 
Q 278.907419 49.64 278.907419 51.64 
L 278.907419 79.286875 
Q 278.907419 81.286875 280.907419 81.286875 
z
" style="fill: #ffffff; opacity: 0.8; stroke: #cccccc; stroke-width: 1.5; stroke-linejoin: miter"/>
   </g>
   <g id="text_30">
    <!-- Input Type -->
    <g style="fill: #262626" transform="translate(453.467575 60.797813) scale(0.1 -0.1)">
     <defs>
      <path id="ArialMT-54" d="M 1659 0 
L 1659 4041 
L 150 4041 
L 150 4581 
L 3781 4581 
L 3781 4041 
L 2266 4041 
L 2266 0 
L 1659 0 
z
" transform="scale(0.015625)"/>
      <path id="ArialMT-79" d="M 397 -1278 
L 334 -750 
Q 519 -800 656 -800 
Q 844 -800 956 -737 
Q 1069 -675 1141 -563 
Q 1194 -478 1313 -144 
Q 1328 -97 1363 -6 
L 103 3319 
L 709 3319 
L 1400 1397 
Q 1534 1031 1641 628 
Q 1738 1016 1872 1384 
L 2581 3319 
L 3144 3319 
L 1881 -56 
Q 1678 -603 1566 -809 
Q 1416 -1088 1222 -1217 
Q 1028 -1347 759 -1347 
Q 597 -1347 397 -1278 
z
" transform="scale(0.015625)"/>
     </defs>
     <use xlink:href="#ArialMT-49"/>
     <use xlink:href="#ArialMT-6e" transform="translate(27.783203 0)"/>
     <use xlink:href="#ArialMT-70" transform="translate(83.398438 0)"/>
     <use xlink:href="#ArialMT-75" transform="translate(139.013672 0)"/>
     <use xlink:href="#ArialMT-74" transform="translate(194.628906 0)"/>
     <use xlink:href="#ArialMT-20" transform="translate(222.412109 0)"/>
     <use xlink:href="#ArialMT-54" transform="translate(248.445312 0)"/>
     <use xlink:href="#ArialMT-79" transform="translate(304.029297 0)"/>
     <use xlink:href="#ArialMT-70" transform="translate(354.029297 0)"/>
     <use xlink:href="#ArialMT-65" transform="translate(409.644531 0)"/>
    </g>
   </g>
   <g id="line2d_37">
    <path d="M 282.907419 71.682188 
L 292.907419 71.682188 
L 302.907419 71.682188 
" style="fill: none; stroke: #4f5d75; stroke-width: 2.2; stroke-linecap: round"/>
    <defs>
     <path id="m936eedc296" d="M 0 4 
C 1.060812 4 2.078319 3.578535 2.828427 2.828427 
C 3.578535 2.078319 4 1.060812 4 0 
C 4 -1.060812 3.578535 -2.078319 2.828427 -2.828427 
C 2.078319 -3.578535 1.060812 -4 0 -4 
C -1.060812 -4 -2.078319 -3.578535 -2.828427 -2.828427 
C -3.578535 -2.078319 -4 -1.060812 -4 0 
C -4 1.060812 -3.578535 2.078319 -2.828427 2.828427 
C -2.078319 3.578535 -1.060812 4 0 4 
z
" style="stroke: #000000; stroke-width: 0.55"/>
    </defs>
    <g>
     <use xlink:href="#m936eedc296" x="292.907419" y="71.682188" style="fill: #4f5d75; stroke: #000000; stroke-width: 0.55"/>
    </g>
   </g>
   <g id="text_31">
    <!-- Random -->
    <g style="fill: #262626" transform="translate(310.907419 75.182188) scale(0.1 -0.1)">
     <defs>
      <path id="ArialMT-52" d="M 503 0 
L 503 4581 
L 2534 4581 
Q 3147 4581 3465 4457 
Q 3784 4334 3975 4021 
Q 4166 3709 4166 3331 
Q 4166 2844 3850 2509 
Q 3534 2175 2875 2084 
Q 3116 1969 3241 1856 
Q 3506 1613 3744 1247 
L 4541 0 
L 3778 0 
L 3172 953 
Q 2906 1366 2734 1584 
Q 2563 1803 2427 1890 
Q 2291 1978 2150 2013 
Q 2047 2034 1813 2034 
L 1109 2034 
L 1109 0 
L 503 0 
z
M 1109 2559 
L 2413 2559 
Q 2828 2559 3062 2645 
Q 3297 2731 3419 2920 
Q 3541 3109 3541 3331 
Q 3541 3656 3305 3865 
Q 3069 4075 2559 4075 
L 1109 4075 
L 1109 2559 
z
" transform="scale(0.015625)"/>
      <path id="ArialMT-64" d="M 2575 0 
L 2575 419 
Q 2259 -75 1647 -75 
Q 1250 -75 917 144 
Q 584 363 401 755 
Q 219 1147 219 1656 
Q 219 2153 384 2558 
Q 550 2963 881 3178 
Q 1213 3394 1622 3394 
Q 1922 3394 2156 3267 
Q 2391 3141 2538 2938 
L 2538 4581 
L 3097 4581 
L 3097 0 
L 2575 0 
z
M 797 1656 
Q 797 1019 1065 703 
Q 1334 388 1700 388 
Q 2069 388 2326 689 
Q 2584 991 2584 1609 
Q 2584 2291 2321 2609 
Q 2059 2928 1675 2928 
Q 1300 2928 1048 2622 
Q 797 2316 797 1656 
z
" transform="scale(0.015625)"/>
     </defs>
     <use xlink:href="#ArialMT-52"/>
     <use xlink:href="#ArialMT-61" transform="translate(72.216797 0)"/>
     <use xlink:href="#ArialMT-6e" transform="translate(127.832031 0)"/>
     <use xlink:href="#ArialMT-64" transform="translate(183.447266 0)"/>
     <use xlink:href="#ArialMT-6f" transform="translate(239.0625 0)"/>
     <use xlink:href="#ArialMT-6d" transform="translate(294.677734 0)"/>
    </g>
   </g>
   <g id="line2d_38">
    <path d="M 368.702731 71.682188 
L 378.702731 71.682188 
L 388.702731 71.682188 
" style="fill: none; stroke: #ef8354; stroke-width: 2.2; stroke-linecap: round"/>
    <defs>
     <path id="m3eab4f9832" d="M -4 4 
L 4 4 
L 4 -4 
L -4 -4 
z
" style="stroke: #000000; stroke-width: 0.55; stroke-linejoin: miter"/>
    </defs>
    <g>
     <use xlink:href="#m3eab4f9832" x="378.702731" y="71.682188" style="fill: #ef8354; stroke: #000000; stroke-width: 0.55; stroke-linejoin: miter"/>
    </g>
   </g>
   <g id="text_32">
    <!-- Reversed -->
    <g style="fill: #262626" transform="translate(396.702731 75.182188) scale(0.1 -0.1)">
     <defs>
      <path id="ArialMT-76" d="M 1344 0 
L 81 3319 
L 675 3319 
L 1388 1331 
Q 1503 1009 1600 663 
Q 1675 925 1809 1294 
L 2547 3319 
L 3125 3319 
L 1869 0 
L 1344 0 
z
" transform="scale(0.015625)"/>
     </defs>
     <use xlink:href="#ArialMT-52"/>
     <use xlink:href="#ArialMT-65" transform="translate(72.216797 0)"/>
     <use xlink:href="#ArialMT-76" transform="translate(127.832031 0)"/>
     <use xlink:href="#ArialMT-65" transform="translate(177.832031 0)"/>
     <use xlink:href="#ArialMT-72" transform="translate(233.447266 0)"/>
     <use xlink:href="#ArialMT-73" transform="translate(266.748047 0)"/>
     <use xlink:href="#ArialMT-65" transform="translate(316.748047 0)"/>
     <use xlink:href="#ArialMT-64" transform="translate(372.363281 0)"/>
    </g>
   </g>
   <g id="line2d_39">
    <path d="M 459.498044 71.682188 
L 469.498044 71.682188 
L 479.498044 71.682188 
" style="fill: none; stroke: #2a9d8f; stroke-width: 2.2; stroke-linecap: round"/>
    <defs>
     <path id="m53ccaaff16" d="M 0 -4 
L -4 4 
L 4 4 
z
" style="stroke: #000000; stroke-width: 0.55; stroke-linejoin: miter"/>
    </defs>
    <g>
     <use xlink:href="#m53ccaaff16" x="469.498044" y="71.682188" style="fill: #2a9d8f; stroke: #000000; stroke-width: 0.55; stroke-linejoin: miter"/>
    </g>
   </g>
   <g id="text_33">
    <!-- Nearly Sorted -->
    <g style="fill: #262626" transform="translate(487.498044 75.182188) scale(0.1 -0.1)">
     <defs>
      <path id="ArialMT-4e" d="M 488 0 
L 488 4581 
L 1109 4581 
L 3516 984 
L 3516 4581 
L 4097 4581 
L 4097 0 
L 3475 0 
L 1069 3600 
L 1069 0 
L 488 0 
z
" transform="scale(0.015625)"/>
     </defs>
     <use xlink:href="#ArialMT-4e"/>
     <use xlink:href="#ArialMT-65" transform="translate(72.216797 0)"/>
     <use xlink:href="#ArialMT-61" transform="translate(127.832031 0)"/>
     <use xlink:href="#ArialMT-72" transform="translate(183.447266 0)"/>
     <use xlink:href="#ArialMT-6c" transform="translate(216.748047 0)"/>
     <use xlink:href="#ArialMT-79" transform="translate(238.964844 0)"/>
     <use xlink:href="#ArialMT-20" transform="translate(288.964844 0)"/>
     <use xlink:href="#ArialMT-53" transform="translate(316.748047 0)"/>
     <use xlink:href="#ArialMT-6f" transform="translate(383.447266 0)"/>
     <use xlink:href="#ArialMT-72" transform="translate(439.0625 0)"/>
     <use xlink:href="#ArialMT-74" transform="translate(472.363281 0)"/>
     <use xlink:href="#ArialMT-65" transform="translate(500.146484 0)"/>
     <use xlink:href="#ArialMT-64" transform="translate(555.761719 0)"/>
    </g>
   </g>
   <g id="line2d_40">
    <path d="M 568.632419 71.682188 
L 578.632419 71.682188 
L 588.632419 71.682188 
" style="fill: none; stroke: #bc6c25; stroke-width: 2.2; stroke-linecap: round"/>
    <defs>
     <path id="m0f331eaedc" d="M 0 5.656854 
L 5.656854 0 
L 0 -5.656854 
L -5.656854 0 
z
" style="stroke: #000000; stroke-width: 0.55; stroke-linejoin: miter"/>
    </defs>
    <g>
     <use xlink:href="#m0f331eaedc" x="578.632419" y="71.682188" style="fill: #bc6c25; stroke: #000000; stroke-width: 0.55; stroke-linejoin: miter"/>
    </g>
   </g>
   <g id="text_34">
    <!-- Many Duplicates -->
    <g style="fill: #262626" transform="translate(596.632419 75.182188) scale(0.1 -0.1)">
     <defs>
      <path id="ArialMT-4d" d="M 475 0 
L 475 4581 
L 1388 4581 
L 2472 1338 
Q 2622 884 2691 659 
Q 2769 909 2934 1394 
L 4031 4581 
L 4847 4581 
L 4847 0 
L 4263 0 
L 4263 3834 
L 2931 0 
L 2384 0 
L 1059 3900 
L 1059 0 
L 475 0 
z
" transform="scale(0.015625)"/>
      <path id="ArialMT-44" d="M 494 0 
L 494 4581 
L 2072 4581 
Q 2606 4581 2888 4516 
Q 3281 4425 3559 4188 
Q 3922 3881 4101 3404 
Q 4281 2928 4281 2316 
Q 4281 1794 4159 1391 
Q 4038 988 3847 723 
Q 3656 459 3429 307 
Q 3203 156 2883 78 
Q 2563 0 2147 0 
L 494 0 
z
M 1100 541 
L 2078 541 
Q 2531 541 2789 625 
Q 3047 709 3200 863 
Q 3416 1078 3536 1442 
Q 3656 1806 3656 2325 
Q 3656 3044 3420 3430 
Q 3184 3816 2847 3947 
Q 2603 4041 2063 4041 
L 1100 4041 
L 1100 541 
z
" transform="scale(0.015625)"/>
     </defs>
     <use xlink:href="#ArialMT-4d"/>
     <use xlink:href="#ArialMT-61" transform="translate(83.300781 0)"/>
     <use xlink:href="#ArialMT-6e" transform="translate(138.916016 0)"/>
     <use xlink:href="#ArialMT-79" transform="translate(194.53125 0)"/>
     <use xlink:href="#ArialMT-20" transform="translate(244.53125 0)"/>
     <use xlink:href="#ArialMT-44" transform="translate(272.314453 0)"/>
     <use xlink:href="#ArialMT-75" transform="translate(344.53125 0)"/>
     <use xlink:href="#ArialMT-70" transform="translate(400.146484 0)"/>
     <use xlink:href="#ArialMT-6c" transform="translate(455.761719 0)"/>
     <use xlink:href="#ArialMT-69" transform="translate(477.978516 0)"/>
     <use xlink:href="#ArialMT-63" transform="translate(500.195312 0)"/>
     <use xlink:href="#ArialMT-61" transform="translate(550.195312 0)"/>
     <use xlink:href="#ArialMT-74" transform="translate(605.810547 0)"/>
     <use xlink:href="#ArialMT-65" transform="translate(633.59375 0)"/>
     <use xlink:href="#ArialMT-73" transform="translate(689.208984 0)"/>
    </g>
   </g>
  </g>
 </g>
 <defs>
  <clipPath id="p4ee61d36f4">
   <rect x="59.416513" y="139.68" width="270.981818" height="129.6"/>
  </clipPath>
  <clipPath id="p7b8326040c">
   <rect x="371.045603" y="139.68" width="270.981818" height="129.6"/>
  </clipPath>
  <clipPath id="pa08e0bfc86">
   <rect x="682.674694" y="139.68" width="270.981818" height="129.6"/>
  </clipPath>
 </defs>
</svg>
